<svg id="Layer_1" data-name="Layer 1" xmlns="http://www.w3.org/2000/svg" viewBox="0 0 211.5 201.5"><defs><style>.cls-1{fill:#232f67;}.cls-2{fill:#ed1e24;}</style></defs><path class="cls-1" d="M106.44,0l6.15.74a97.13,97.13,0,0,1,31,9.18,100.09,100.09,0,0,1,40,35c.23.34.44.7.78,1.24-1.4.13-2.64.26-3.88.36q-8,.64-16,1.24a4,4,0,0,1-1.37-.21c-6.72-1.87-13.44-3.73-20.14-5.67a3.73,3.73,0,0,1-1.86-1.31,94.94,94.94,0,0,0-33.26-29.36,86.54,86.54,0,0,0-25.9-9c-.33-.06-.66-.17-1.34-.35,1-.22,1.7-.39,2.4-.52s1.42-.25,2.13-.33C87.74.75,90.3.49,92.87.21A6.07,6.07,0,0,0,93.71,0Z"/><path class="cls-1" d="M0,93.71c.26-2.22.49-4.44.8-6.65a3.17,3.17,0,0,1,.62-1.6A178.06,178.06,0,0,1,46,48a1.69,1.69,0,0,1,.39-.07,8.36,8.36,0,0,1-.12,1.06A86.79,86.79,0,0,0,43.5,69.53c0,3.34.09,6.69.27,10,.06,1-.53,1.22-1.16,1.54A161.31,161.31,0,0,0,21.22,94.28C13.47,100,6.3,106.3,1,115l-1-8.82Z"/><path class="cls-2" d="M141.65,59.64c.74,3.62,1.46,7.13,2.2,10.76-3,.9-6,1.78-9,2.68C113,79.66,91.57,87.4,71.19,97.79c-11.54,5.88-22.71,12.39-32.61,20.82-3.25,2.76-6,6-9,9.09a2.08,2.08,0,0,0-.34,2.71c11.55,24,30.16,39.39,56.28,44.33,28.79,5.45,53.57-3,73.33-24.88,9.82-10.87,15.64-23.83,18-38.34a90.39,90.39,0,0,0,.73-20.79c-.06-.78-.4-1-1.11-1-3.13-.11-6.27-.32-9.4-.36-6.19-.09-12.39-.32-18.57-.08-7.74.31-15.49.83-23.19,1.63-6.12.64-12.19,1.84-18.39,2.8,3.45-1.62,6.81-3.31,10.25-4.81a261.66,261.66,0,0,1,46.93-15c7-1.59,14-3,21-4.22,3.11-.55,6.32-.53,9.64-.78,1.18,4.67,2.39,9.2,3.46,13.76a77.78,77.78,0,0,1,1.93,19.17c-.49,25.89-9.38,48.5-27,67.52a98.82,98.82,0,0,1-52.59,30,97.83,97.83,0,0,1-28.31,1.91,97.38,97.38,0,0,1-49.1-17.29A98.48,98.48,0,0,1,5.51,134.59c-1.86-5.29-.72-10.27,1.81-15,2.81-5.3,6.9-9.55,11.36-13.43,9.69-8.44,20.61-15,32.13-20.57,21.94-10.64,45.05-17.74,68.93-22.4,6.93-1.35,13.93-2.35,20.9-3.51A8.43,8.43,0,0,1,141.65,59.64Z"/><path class="cls-1" d="M108.12,24.67c-18-.05-35.11,3.81-51.92,10.94.89-2.27,1.61-4.23,2.42-6.15A120.45,120.45,0,0,1,73.19,4.36,5.57,5.57,0,0,1,78.3,2.78a112.46,112.46,0,0,1,45.42,27.3,106.92,106.92,0,0,1,16.43,21c.13.21.25.43.48.84C109.26,56.15,79,64,50.09,77.37c0-3.54-.1-6.88,0-10.21a103.9,103.9,0,0,1,3.33-22.44,2.36,2.36,0,0,1,1.34-1.66,192.6,192.6,0,0,1,49.4-17.34c1.28-.27,2.55-.56,3.83-.84C108,24.87,108.05,24.81,108.12,24.67Z"/><path class="cls-1" d="M41.42,128.46a62.68,62.68,0,0,1,11.31-8.67A80.81,80.81,0,0,1,84,108.55a99.85,99.85,0,0,1,18.54-.43c8.84.42,17.69,1,26.54,1.07,7.85.06,15.61-1.25,23.28-2.88,4.64-1,9.22-2.16,13.83-3.24a2.66,2.66,0,0,1,1.44,0c-1,1.36-1.94,2.78-3,4.07-10.64,12.55-24.24,20.13-40.17,23.73a67.24,67.24,0,0,1-21.36,1.27c-5.42-.51-10.58-2.17-15.8-3.62A120.22,120.22,0,0,0,72.5,125a59.41,59.41,0,0,0-11.78-.1A91.35,91.35,0,0,0,41.42,128.46Z"/><path class="cls-1" d="M2.86,76.52C9.79,44.68,36.34,13.83,72.54,4.1,71,5.55,69.47,6.93,68,8.45A88,88,0,0,0,49.86,37.57a3.24,3.24,0,0,1-1.7,1.88A135.34,135.34,0,0,0,13,65.15C9.83,68.38,7,71.89,3.93,75.28,3.6,75.65,3.28,76,2.86,76.52Z"/><path class="cls-1" d="M160.67,124.11a27.07,27.07,0,0,1-4.27,11.43c-5.16,8.11-12.46,13.65-21.21,17.36A61.17,61.17,0,0,1,116,157.37c-13.1,1.06-25.45-1.87-37.5-6.7-6-2.4-12.09-4.59-18.14-6.86a22.26,22.26,0,0,0-9.43-1.56,30.42,30.42,0,0,1,8.74-3.19c8.22-1.77,16.21-.52,24.2,1.61,6.07,1.63,12.21,3.08,18.4,4.24a70.78,70.78,0,0,0,20.76.56,57.17,57.17,0,0,0,20.69-6.05,41.32,41.32,0,0,0,16.56-15C160.32,124.34,160.41,124.3,160.67,124.11Z"/><path class="cls-2" d="M211.5,56.19,151.85,68.4c-1.13-5.72-2.21-11.25-3.34-17,2.71.75,5.24,1.43,7.77,2.14,1.95.55,3.88,1.18,5.85,1.64a9.76,9.76,0,0,0,2.86.17c3.8-.25,7.6-.56,11.39-.86s7.59-.66,11.39-.91c4.9-.33,9.8-.67,14.71-.84C205.32,52.65,209.87,54.52,211.5,56.19Z"/></svg>